<svg width="512" height="512" viewBox="0 0 512 512" fill="none" xmlns="http://www.w3.org/2000/svg">
<path d="M440.163 184.193L318.07 61.8452C315.619 59.3862 312.294 58.0031 308.826 58H99.5233C91.428 58 83.6643 61.2225 77.9401 66.9587C72.2158 72.6949 69 80.4748 69 88.587V245.891C69 249.368 70.3782 252.702 72.8315 255.161C75.2847 257.619 78.612 259 82.0814 259C85.5508 259 88.8781 257.619 91.3313 255.161C93.7846 252.702 95.1628 249.368 95.1628 245.891V88.587C95.1628 87.4281 95.6222 86.3167 96.4399 85.4972C97.2577 84.6778 98.3668 84.2174 99.5233 84.2174H295.744V193.457C295.744 196.933 297.122 200.267 299.576 202.726C302.029 205.184 305.356 206.565 308.826 206.565H417.837V245.891C417.837 249.368 419.215 252.702 421.669 255.161C424.122 257.619 427.449 259 430.919 259C434.388 259 437.715 257.619 440.169 255.161C442.622 252.702 444 249.368 444 245.891V193.457C443.997 189.981 442.617 186.649 440.163 184.193ZM321.907 180.348V102.744L399.349 180.348H321.907Z" fill="black"/>
<path d="M151.552 429.901C153.983 429.901 155.959 430.738 157.478 432.413C159.149 433.935 159.985 435.913 159.985 438.349C159.985 440.632 159.149 442.61 157.478 444.285C155.959 445.959 153.983 446.796 151.552 446.796H85.2339C81.8913 446.796 79.0806 445.654 76.8016 443.371C74.5226 441.088 73.3831 438.272 73.3831 434.924V323.966C73.3831 321.683 74.2187 319.705 75.89 318.03C77.5613 316.204 79.5364 315.291 81.8154 315.291C84.0944 315.291 86.0695 316.128 87.7408 317.802C89.5639 319.476 90.4755 321.531 90.4755 323.966V429.901H151.552Z" fill="black"/>
<path d="M191.207 333.099C203.058 320.618 218.859 314.378 238.61 314.378C258.361 314.378 274.162 320.618 286.013 333.099C297.56 345.427 303.561 361.561 304.017 381.5C303.561 401.287 297.56 417.42 286.013 429.901C274.162 442.382 258.361 448.622 238.61 448.622C218.859 448.622 203.058 442.382 191.207 429.901C179.356 417.42 173.279 401.287 172.975 381.5C173.279 361.713 179.356 345.58 191.207 333.099ZM238.61 432.641C253.803 432.641 265.73 427.77 274.39 418.029C282.898 408.593 287.152 396.416 287.152 381.5C287.152 366.584 282.898 354.407 274.39 344.971C265.578 335.077 253.651 330.207 238.61 330.359C223.417 330.359 211.414 335.23 202.602 344.971C194.094 354.407 189.915 366.584 190.067 381.5C190.067 396.416 194.246 408.593 202.602 418.029C211.414 427.77 223.417 432.641 238.61 432.641Z" fill="black"/>
<path d="M391.986 432.641C403.685 432.641 414.624 429.901 424.803 424.422V390.632H393.809C391.682 390.632 389.859 389.871 388.34 388.349C386.972 386.827 386.289 385.001 386.289 382.87C386.289 380.739 387.048 378.913 388.567 377.39C390.087 375.868 391.834 375.107 393.809 375.107H430.729C433.16 375.107 435.211 376.021 436.882 377.847C438.705 379.521 439.617 381.652 439.617 384.24V426.477C439.617 429.216 438.933 431.652 437.566 433.782C436.35 435.761 434.679 437.207 432.552 438.12C418.574 445.122 404.369 448.622 389.935 448.622C370.336 448.622 354.535 442.382 342.532 429.901C330.529 417.42 324.452 401.363 324.3 381.728C324.3 361.942 330.605 345.58 343.216 332.642C355.218 320.466 370.563 314.378 389.251 314.378C399.886 314.378 408.85 315.671 416.143 318.259C423.436 320.846 429.969 324.043 435.743 327.848C438.174 329.218 439.389 331.196 439.389 333.784C439.389 336.371 438.705 338.426 437.338 339.948C436.122 341.47 434.527 342.231 432.552 342.231C430.577 342.231 428.982 341.927 427.766 341.318C415.763 334.316 403.533 330.816 391.074 330.816C376.641 330.816 364.79 335.23 355.522 344.058C345.95 353.342 341.24 365.899 341.392 381.728C341.392 396.492 345.798 408.593 354.611 418.029C363.878 427.77 376.337 432.641 391.986 432.641Z" fill="black"/>
<path d="M238.61 310C259.046 310 275.858 316.398 288.591 329.46L289.194 330.087L289.204 330.097L289.214 330.108C301.626 343.362 307.924 360.592 308.399 381.4L308.401 381.5L308.399 381.601C307.923 402.267 301.621 419.481 289.233 432.872L289.213 432.893L289.194 432.913C276.391 446.397 259.371 453 238.61 453C217.849 453 200.829 446.397 188.026 432.913C175.306 419.517 168.91 402.275 168.592 381.567L168.591 381.5L168.592 381.433C168.91 360.725 175.306 343.483 188.026 330.087C200.829 316.603 217.849 310 238.61 310ZM86.0921 323.967C86.0921 322.778 85.7104 321.885 84.7737 321.025L84.7043 320.96L84.6367 320.893C83.7524 320.007 82.8802 319.668 81.8155 319.668C80.8824 319.668 80.0472 319.976 79.1255 320.984L79.0618 321.054L78.9942 321.122C78.1097 322.008 77.7662 322.888 77.7662 323.967V434.924C77.7662 437.163 78.4804 438.853 79.9055 440.281C81.33 441.708 83.0102 442.418 85.2341 442.418H151.553C152.85 442.418 153.609 442.029 154.23 441.345L154.301 441.268L154.374 441.194C155.258 440.307 155.602 439.427 155.602 438.348C155.602 437.037 155.208 436.27 154.525 435.647L154.37 435.507L154.23 435.352C153.609 434.667 152.85 434.279 151.553 434.279H86.0921V323.967ZM238.61 318.755C219.868 318.755 205.287 324.633 194.388 336.111C183.42 347.662 177.661 362.665 177.358 381.5C177.661 400.335 183.42 415.338 194.388 426.889C205.287 438.367 219.868 444.245 238.61 444.245C257.342 444.245 271.919 438.373 282.816 426.906C293.487 415.359 299.179 400.346 299.632 381.499C299.178 362.477 293.474 347.474 282.812 336.09C271.915 324.626 257.34 318.755 238.61 318.755ZM282.769 381.5C282.769 367.465 278.793 356.395 271.133 347.9L271.124 347.89L271.115 347.88C263.509 339.341 253.281 334.879 239.954 334.737H238.61C224.444 334.737 213.703 339.23 205.854 347.906C198.211 356.386 194.308 367.436 194.451 381.455V381.5C194.451 395.536 198.353 406.605 205.854 415.094L206.598 415.895C214.377 424.047 224.886 428.263 238.61 428.263C252.778 428.263 263.424 423.771 271.112 415.123L271.133 415.1C278.793 406.605 282.769 395.535 282.769 381.5ZM391.074 326.439C404.332 326.439 417.255 330.156 429.791 337.432C430.207 337.624 431.048 337.854 432.552 337.854C433.214 337.854 433.541 337.683 433.912 337.218L433.991 337.119L434.075 337.024C434.545 336.502 435.005 335.589 435.005 333.784C435.005 332.92 434.773 332.328 433.589 331.661L433.456 331.586L433.329 331.501C427.883 327.912 421.674 324.867 414.676 322.384C407.994 320.013 399.56 318.755 389.251 318.755C371.627 318.755 357.452 324.447 346.356 335.694L346.357 335.695C334.623 347.733 328.684 362.962 328.684 381.728C328.835 400.391 334.579 415.312 345.693 426.869C356.757 438.374 371.357 444.245 389.935 444.245C403.63 444.245 417.167 440.929 430.587 434.207L430.702 434.149L430.821 434.099C432.113 433.544 433.086 432.705 433.83 431.493L433.853 431.457L433.875 431.42C434.753 430.052 435.234 428.451 435.234 426.476V384.24C435.234 382.813 434.79 381.873 433.915 381.07L433.776 380.94L433.646 380.8C432.787 379.861 431.902 379.485 430.729 379.485H393.809C393.109 379.485 392.45 379.701 391.672 380.481C390.964 381.19 390.672 381.909 390.672 382.87C390.672 383.934 390.97 384.689 391.543 385.354C392.219 385.993 392.906 386.255 393.809 386.255H429.187V427.036L426.883 428.276C416.057 434.103 404.402 437.018 391.986 437.018C375.349 437.018 361.665 431.798 351.433 421.044L351.419 421.03L351.405 421.015C341.735 410.66 337.018 397.452 337.009 381.771L337.006 380.986C337.007 364.557 342.041 351.032 352.468 340.917L352.482 340.903L352.497 340.89C362.686 331.185 375.669 326.439 391.074 326.439ZM291.535 381.5C291.535 397.286 287.01 410.56 277.667 420.935C268.035 431.769 254.829 437.018 238.61 437.018C222.39 437.018 209.125 431.77 199.349 420.964L199.319 420.929C190.136 410.559 185.693 397.302 185.684 381.545L185.683 380.069C185.807 364.906 190.268 352.108 199.344 342.041L199.349 342.036C209.116 331.24 222.365 325.991 238.565 325.982C254.674 325.819 267.876 331.083 277.647 342.041C287.004 352.419 291.535 365.702 291.535 381.5ZM443.772 333.784C443.772 337.106 442.891 340.257 440.696 342.761C438.642 345.286 435.805 346.609 432.552 346.609C430.181 346.609 427.839 346.252 425.801 345.231L425.676 345.169L425.555 345.098C414.144 338.442 402.669 335.194 391.074 335.194C377.618 335.194 366.902 339.271 358.557 347.216C350.285 355.249 345.911 366.117 345.776 380.302V381.728C345.776 395.543 349.864 406.516 357.796 415.021C366.099 423.744 377.329 428.263 391.986 428.263C402.088 428.263 411.549 426.092 420.421 421.749V395.01H393.809C390.502 395.01 387.567 393.775 385.236 391.44L385.154 391.358L385.077 391.273C382.956 388.911 381.906 386.03 381.906 382.87C381.906 379.569 383.133 376.635 385.463 374.3C387.724 372.035 390.559 370.73 393.809 370.73H430.729C434.352 370.73 437.52 372.13 439.985 374.752C442.665 377.281 444 380.553 444 384.24V426.476C444 429.952 443.126 433.194 441.3 436.07L441.301 436.071C441.296 436.081 441.288 436.09 441.282 436.1C441.273 436.114 441.265 436.13 441.256 436.144L441.255 436.143C439.601 438.804 437.301 440.807 434.439 442.071C419.928 449.326 405.079 453 389.935 453C369.314 453 352.312 446.39 339.371 432.933C326.487 419.536 320.077 402.353 319.917 381.762V381.728C319.917 360.921 326.588 343.425 340.075 329.589L340.084 329.58L340.092 329.571C352.999 316.477 369.509 310 389.251 310C400.212 310 409.707 311.329 417.611 314.133C425.155 316.81 431.976 320.135 438.051 324.125C441.635 326.205 443.772 329.534 443.772 333.784ZM94.8583 425.523H151.553C155.048 425.523 158.184 426.76 160.583 429.32C163.138 431.723 164.368 434.859 164.368 438.348C164.368 441.776 163.082 444.807 160.703 447.248C158.288 449.895 155.106 451.173 151.553 451.173H85.2341C80.7731 451.173 76.8313 449.601 73.698 446.462C70.5652 443.324 69 439.381 69 434.924V323.967C69 320.538 70.2861 317.507 72.6659 315.065C75.0851 312.427 78.1962 310.913 81.8155 310.913C85.2448 310.913 88.2719 312.203 90.7073 314.58L90.9574 314.815C93.5055 317.27 94.8583 320.4 94.8583 323.967V425.523Z" fill="black"/>
</svg>
